HIERARCHY
ROOT Hips
{
	OFFSET 0.000000 0.000000 0.000000
	CHANNELS 6 Xposition Yposition Zposition Zrotation Yrotation Xrotation
	JOINT LHipJoint
	{
		OFFSET 0.000000 0.000000 0.000000
		CHANNELS 3 Zrotation Yrotation Xrotation
		JOINT LeftUpLeg
		{
			OFFSET 1.363060 -1.794630 0.839290
			CHANNELS 3 Zrotation Yrotation Xrotation
			JOINT LeftLeg
			{
				OFFSET 2.448110 -6.726130 0.000000
				CHANNELS 3 Zrotation Yrotation Xrotation
				JOINT LeftFoot
				{
					OFFSET 2.562200 -7.039590 0.000000
					CHANNELS 3 Zrotation Yrotation Xrotation
					JOINT LeftToeBase
					{
						OFFSET 0.157640 -0.433110 2.322550
						CHANNELS 3 Zrotation Yrotation Xrotation
						End Site
						{
							OFFSET 0.000000 0.000000 0.000000
						}
					}
				}
			}
		}
	}
	JOINT RHipJoint
	{
		OFFSET 0.000000 0.000000 0.000000
		CHANNELS 3 Zrotation Yrotation Xrotation
		JOINT RightUpLeg
		{
			OFFSET -1.305520 -1.794630 0.839290
			CHANNELS 3 Zrotation Yrotation Xrotation
			JOINT RightLeg
			{
				OFFSET -2.542530 -6.985550 0.000000
				CHANNELS 3 Zrotation Yrotation Xrotation
				JOINT RightFoot
				{
					OFFSET -2.568260 -7.056230 0.000000
					CHANNELS 3 Zrotation Yrotation Xrotation
					JOINT RightToeBase
					{
						OFFSET -0.164730 -0.452590 2.363150
						CHANNELS 3 Zrotation Yrotation Xrotation
						End Site
						{
							OFFSET 0.000000 0.000000 0.000000
						}
					}
				}
			}
		}
	}
	JOINT LowerBack
	{
		OFFSET 0.000000 0.000000 0.000000
		CHANNELS 3 Zrotation Yrotation Xrotation
		JOINT Spine
		{
			OFFSET 0.028270 2.035590 -0.193380
			CHANNELS 3 Zrotation Yrotation Xrotation
			JOINT Spine1
			{
				OFFSET 0.056720 2.048850 -0.042750
				CHANNELS 3 Zrotation Yrotation Xrotation
				JOINT Neck
				{
					OFFSET 0.000000 0.000000 0.000000
					CHANNELS 3 Zrotation Yrotation Xrotation
					JOINT Neck1
					{
						OFFSET -0.054170 1.746240 0.172020
						CHANNELS 3 Zrotation Yrotation Xrotation
						JOINT Head
						{
							OFFSET 0.104070 1.761360 -0.123970
							CHANNELS 3 Zrotation Yrotation Xrotation
							End Site
							{
								OFFSET 0.000000 0.000000 0.000000
							}
						}
					}
				}
				JOINT LeftShoulder
				{
					OFFSET 0.000000 0.000000 0.000000
					CHANNELS 3 Zrotation Yrotation Xrotation
					JOINT LeftArm
					{
						OFFSET 3.362410 1.200890 -0.311210
						CHANNELS 3 Zrotation Yrotation Xrotation
						JOINT LeftForeArm
						{
							OFFSET 4.983000 -0.000000 -0.000000
							CHANNELS 3 Zrotation Yrotation Xrotation
							JOINT LeftHand
							{
								OFFSET 3.483560 -0.000000 -0.000000
								CHANNELS 3 Zrotation Yrotation Xrotation
								JOINT LeftFingerBase
								{
									OFFSET 0.000000 0.000000 0.000000
									CHANNELS 3 Zrotation Yrotation Xrotation
									JOINT LeftHandIndex1
									{
										OFFSET 0.715260 -0.000000 -0.000000
										CHANNELS 3 Zrotation Yrotation Xrotation
										End Site
										{
											OFFSET 0.000000 0.000000 0.000000
										}
									}
								}
								JOINT LThumb
								{
									OFFSET 0.000000 0.000000 0.000000
									CHANNELS 3 Zrotation Yrotation Xrotation
									End Site
									{
										OFFSET 0.000000 0.000000 0.000000
									}
								}
							}
						}
					}
				}
				JOINT RightShoulder
				{
					OFFSET 0.000000 0.000000 0.000000
					CHANNELS 3 Zrotation Yrotation Xrotation
					JOINT RightArm
					{
						OFFSET -3.136600 1.374050 -0.404650
						CHANNELS 3 Zrotation Yrotation Xrotation
						JOINT RightForeArm
						{
							OFFSET -5.241900 -0.000000 -0.000000
							CHANNELS 3 Zrotation Yrotation Xrotation
							JOINT RightHand
							{
								OFFSET -3.444170 -0.000000 -0.000000
								CHANNELS 3 Zrotation Yrotation Xrotation
								JOINT RightFingerBase
								{
									OFFSET 0.000000 0.000000 0.000000
									CHANNELS 3 Zrotation Yrotation Xrotation
									JOINT RightHandIndex1
									{
										OFFSET -0.622530 -0.000000 -0.000000
										CHANNELS 3 Zrotation Yrotation Xrotation
										End Site
										{
											OFFSET 0.000000 0.000000 0.000000
										}
									}
								}
								JOINT RThumb
								{
									OFFSET 0.000000 0.000000 0.000000
									CHANNELS 3 Zrotation Yrotation Xrotation
									End Site
									{
										OFFSET 0.000000 0.000000 0.000000
									}
								}
							}
						}
					}
				}
			}
		}
	}
}
MOTION
Frames: 7
Frame Time: 0.008333
-4.024469 -3.551330 33.529327 3.168242 5.111220 -2.684301 -5.809391 4.793880 0.127155 -15.623192 10.785618 45.024307 -8.872634 4.070061 -18.366037 0.010013 -7.080984 -10.940538 -1.015629 12.452016 -32.132458 -5.299271 -0.298553 -4.764534 10.757972 0.539686 -13.573472 -3.437284 -1.686891 -2.591307 5.689301 -8.791719 -24.487804 4.645631 0.439909 -24.078846 -3.031289 1.141862 -1.042243 -1.467402 -1.311783 -4.199252 3.045659 -0.126462 -3.928099 -0.058307 -1.051075 -5.261601 0.378418 -6.235607 1.073660 1.034247 -2.707804 -2.270316 -5.525910 -3.403856 -0.274339 8.387437 -37.148407 16.281351 7.641105 -5.173028 -11.199154 -0.594309 1.461253 -18.646269 2.817242 19.602795 -3.073882 -0.039041 0.000000 0.000000 47.370720 -21.014458 8.961852 -3.543301 3.978503 0.118112 68.666702 -10.199680 -1.976876 9.957384 -30.010628 6.202882 -1.355479 -1.029717 64.651596 -62.533566 -41.140568 63.631104 -2.058266 0.000000 0.000000 20.626640 12.716228 -27.881348
-4.036435 -3.534628 33.652771 3.138760 5.211510 -2.641838 -5.843233 4.813689 0.159577 -15.635077 10.776719 45.486248 -8.939641 3.998660 -18.654028 -0.003119 -7.079994 -10.949538 -0.997343 12.348536 -32.463924 -5.265764 -0.314751 -4.798011 11.067338 0.479122 -13.615366 -3.313476 -1.594962 -2.952878 5.692461 -8.583781 -24.827425 4.588676 0.445319 -23.876608 -3.120061 1.123955 -0.865278 -1.445150 -1.359211 -4.246594 3.154884 -0.173465 -3.831946 0.147044 -1.123119 -5.293805 0.443638 -6.180454 1.090759 1.099694 -2.689787 -2.259892 -5.490773 -3.427599 -0.288096 9.103555 -37.551769 16.380753 8.031209 -5.422637 -11.315235 -0.590225 1.491801 -18.586313 2.904828 19.840378 -3.184113 -0.051166 0.000000 0.000000 47.523685 -21.252668 9.226184 -3.566426 3.976097 0.117129 68.777420 -10.143206 -2.328827 10.053555 -30.359512 6.281964 -1.374348 -1.035357 65.063835 -63.340092 -41.435314 63.998459 -2.068850 0.000000 0.000000 20.395702 12.711484 -28.177635
-4.048878 -3.519562 33.763641 3.110423 5.312825 -2.596199 -5.875261 4.832766 0.191056 -15.648574 10.764055 45.953644 -9.006785 3.928204 -18.940149 -0.014531 -7.066642 -10.943248 -0.975913 12.245278 -32.790085 -5.228137 -0.330293 -4.826084 11.388078 0.425705 -13.634739 -3.189508 -1.498513 -3.300941 5.696002 -8.394638 -25.202978 4.538243 0.434594 -23.655924 -3.222250 1.093059 -0.707529 -1.427558 -1.422171 -4.334096 3.252897 -0.229775 -3.782895 0.316538 -1.213580 -5.370566 0.487185 -6.161985 1.056626 1.129842 -2.687426 -2.287755 -5.500488 -3.477020 -0.305419 9.722184 -37.995472 16.328377 8.405175 -5.704631 -11.444268 -0.589936 1.516323 -18.573078 2.971042 20.070492 -3.296075 -0.063864 0.000000 0.000000 47.669537 -21.511810 9.475278 -3.590420 3.972640 0.115483 68.877899 -10.084260 -2.678191 10.151265 -30.700254 6.364614 -1.393147 -1.040689 65.477913 -64.122231 -41.719597 64.384850 -2.078717 0.000000 0.000000 20.191263 12.720982 -28.443239
-4.059398 -3.501218 33.886509 3.085057 5.418461 -2.545268 -5.902687 4.853913 0.224738 -15.657172 10.754758 46.429798 -9.072942 3.860630 -19.225210 -0.025361 -7.049740 -10.937878 -0.953950 12.140663 -33.122322 -5.191570 -0.346825 -4.854644 11.705456 0.370353 -13.654943 -3.066950 -1.402527 -3.654992 5.696091 -8.234530 -25.595974 4.486769 0.395821 -23.483408 -3.334571 1.056905 -0.558232 -1.412295 -1.492689 -4.444722 3.348408 -0.291203 -3.755318 0.474575 -1.308803 -5.464206 0.523759 -6.148771 1.017107 1.157398 -2.685591 -2.316113 -5.510576 -3.522840 -0.322386 10.362255 -38.433228 16.316576 8.790949 -5.982112 -11.574347 -0.589098 1.541136 -18.550604 3.043857 20.305622 -3.406147 -0.076222 0.000000 0.000000 47.823994 -21.763479 9.732356 -3.613223 3.970008 0.114119 68.980339 -10.023634 -3.024226 10.249393 -31.034899 6.447998 -1.412063 -1.045829 65.892899 -64.884224 -41.994942 64.786087 -2.088049 0.000000 0.000000 20.013247 12.747049 -28.674356
-4.074265 -3.485584 33.996769 3.052150 5.513703 -2.499858 -5.936938 4.873560 0.255284 -15.671361 10.741316 46.930626 -9.141687 3.781657 -19.545118 -0.045426 -7.054050 -10.976036 -0.938064 12.022719 -33.478645 -5.175005 -0.371297 -4.896231 11.975795 0.290790 -13.705794 -2.961106 -1.317684 -4.018760 5.691682 -8.113502 -26.012022 4.446435 0.341510 -23.414160 -3.490988 1.011643 -0.425756 -1.395100 -1.557364 -4.574926 3.450517 -0.350984 -3.724611 0.601896 -1.422679 -5.586657 0.543079 -6.164682 0.938850 1.162952 -2.695119 -2.370610 -5.549268 -3.578311 -0.343034 10.893418 -38.904808 16.234915 9.209082 -6.228837 -11.701954 -0.588855 1.564999 -18.504904 3.131441 20.562811 -3.515794 -0.086518 0.000000 0.000000 48.005066 -22.003939 9.999672 -3.632196 3.966138 0.111507 69.056961 -9.965490 -3.388134 10.330684 -31.372639 6.526376 -1.431458 -1.051588 66.299065 -65.678513 -42.292850 65.150513 -2.098021 0.000000 0.000000 19.791470 12.740804 -28.913103
-4.087458 -3.469683 34.114502 3.016072 5.603005 -2.457397 -5.974785 4.892020 0.284310 -15.686640 10.727700 47.454571 -9.211741 3.701751 -19.877489 -0.065892 -7.043670 -10.989210 -0.916801 11.920170 -33.748260 -5.122651 -0.383361 -4.911927 12.310421 0.247842 -13.690458 -2.850863 -1.216044 -4.307823 5.703303 -7.908640 -26.276365 4.424487 0.302985 -23.168461 -3.560298 0.985668 -0.235194 -1.363739 -1.602862 -4.676290 3.582890 -0.395188 -3.666813 0.773490 -1.500381 -5.622416 0.598398 -6.122435 0.948120 1.210995 -2.679321 -2.374557 -5.530408 -3.586587 -0.350913 11.708332 -39.268772 16.247972 9.593263 -6.466325 -11.830150 -0.589942 1.589199 -18.457422 3.220457 20.817966 -3.627727 -0.097822 0.000000 0.000000 48.176289 -22.245811 10.263865 -3.649290 3.961155 0.109607 69.137520 -9.898062 -3.758600 10.414241 -31.698236 6.605299 -1.449396 -1.056072 66.713097 -66.398361 -42.579395 65.566811 -2.106310 0.000000 0.000000 19.647476 12.774983 -29.028929
-4.100698 -3.459120 34.208015 2.978600 5.693394 -2.409488 -6.012314 4.910094 0.313458 -15.702991 10.714022 47.985172 -9.286851 3.607038 -20.254658 -0.088532 -7.018154 -10.981121 -0.890025 11.808089 -34.074848 -5.090068 -0.403049 -4.933706 12.615038 0.189596 -13.693891 -2.753270 -1.122856 -4.599130 5.712499 -7.773661 -26.650255 4.398870 0.218414 -22.864397 -3.635150 0.953304 -0.062748 -1.338111 -1.653465 -4.804539 3.717621 -0.438474 -3.633348 0.922697 -1.579837 -5.666637 0.645432 -6.092709 0.937997 1.248844 -2.665901 -2.392374 -5.525710 -3.606219 -0.361449 12.398832 -39.675735 15.980033 9.954228 -6.680852 -11.957112 -0.591975 1.612033 -18.439320 3.296636 21.058678 -3.739568 -0.109353 0.000000 0.000000 48.324539 -22.516445 10.499915 -3.667423 3.952510 0.106954 69.199440 -9.820955 -4.126066 10.501492 -32.005840 6.675707 -1.468522 -1.061696 67.112152 -67.161087 -42.893764 65.952530 -2.115182 0.000000 0.000000 19.461992 12.777887 -29.170965
